<?xml version="1.0" standalone="no"?>
<!DOCTYPE svg PUBLIC "-//W3C//DTD SVG 20010904//EN"
 "http://www.w3.org/TR/2001/REC-SVG-20010904/DTD/svg10.dtd">
<svg version="1.0" xmlns="http://www.w3.org/2000/svg"
 width="500.000000pt" height="500.000000pt" viewBox="0 0 500.000000 500.000000"
 preserveAspectRatio="xMidYMid meet">

<g transform="translate(0.000000,500.000000) scale(0.100000,-0.100000)"
fill="#000000" stroke="none">
<path d="M1136 4161 c-3 -5 29 -44 72 -87 42 -44 58 -61 35 -39 -24 21 -43 35
-43 31 0 -15 128 -156 302 -335 l170 -173 426 6 c315 5 1653 17 1770 16 9 0
12 65 12 293 -1 249 -3 289 -14 274 -9 -12 -16 -61 -20 -145 -3 -70 -9 -179
-11 -242 -3 -63 -7 -114 -8 -115 -1 0 -139 2 -307 5 -168 3 -262 7 -210 10
l95 3 -87 6 c-47 3 -89 8 -92 11 -3 3 47 7 112 9 139 3 164 11 34 11 -51 0
-92 3 -92 8 0 4 19 8 43 8 23 1 56 3 72 4 l30 3 -35 7 c-25 6 -11 7 48 6 126
-3 73 11 -67 17 -148 6 -189 26 -60 29 l84 2 -90 6 c-49 3 -80 7 -68 8 32 3
39 22 9 22 -16 0 -26 6 -26 15 0 11 -13 15 -47 16 -47 2 -47 2 -13 9 l35 7
-35 2 c-27 1 -31 4 -20 11 11 7 1 10 -35 11 l-50 2 70 11 70 12 -62 7 c-34 5
-65 13 -69 19 -4 6 -3 9 2 5 5 -3 25 -2 44 3 l35 8 -40 1 c-22 1 -58 4 -80 8
l-40 7 30 7 c27 6 26 7 -13 8 -24 0 -41 5 -37 10 3 5 -3 12 -12 14 -10 3 0 6
22 7 l40 2 -50 13 -50 13 50 2 50 2 -50 8 c-27 4 -77 13 -110 20 -47 10 -56
14 -40 21 24 9 -1406 12 -1483 2 l-53 -6 43 -46 43 -46 -50 47 c-28 26 -74 56
-105 68 -76 29 -86 43 -13 17 60 -22 64 -22 559 -15 274 3 576 9 669 12 94 3
451 9 795 12 344 3 629 10 634 15 6 5 -551 9 -1351 9 -794 0 -1364 -4 -1367
-9z m299 -231 c38 -38 67 -70 64 -70 -2 0 -36 32 -74 70 -38 39 -67 70 -64 70
2 0 36 -31 74 -70z m246 -324 c4 -5 12 1 19 14 11 20 7 28 -47 83 l-58 61 65
-59 65 -60 -17 -31 -18 -30 -53 50 c-29 28 -88 89 -132 136 -66 70 -58 64 45
-35 69 -66 128 -124 131 -129z"/>
<path d="M1010 2557 c0 -1440 0 -1448 20 -1437 11 6 144 140 295 298 l276 287
-1 849 c0 467 -2 851 -4 853 -2 2 -15 1 -30 -3 l-26 -6 0 -838 c0 -786 -1
-838 -17 -851 -15 -11 -16 -11 -5 1 9 11 12 193 12 838 0 470 -4 831 -9 840
-5 9 -87 96 -183 192 -95 96 -190 195 -211 220 l-38 44 1 -1282 c1 -943 -2
-1286 -10 -1299 -11 -17 -11 -17 -6 1 4 10 6 601 6 1313 l0 1295 -22 51 c-50
122 -48 189 -48 -1366z m280 -1070 c0 -1 -30 -32 -67 -67 l-68 -65 65 68 c60
62 70 72 70 64z m-259 -340 c-10 -9 -11 -8 -5 6 3 10 9 15 12 12 3 -3 0 -11
-7 -18z"/>
<path d="M1066 3934 c9 -23 26 -47 38 -54 13 -6 31 -25 40 -41 10 -17 20 -28
22 -26 3 3 17 -7 32 -22 95 -90 132 -122 132 -114 0 5 -43 52 -96 104 -53 52
-116 117 -140 144 l-44 50 16 -41z"/>
<path d="M3557 3743 c18 -2 50 -2 70 0 21 2 7 4 -32 4 -38 0 -55 -2 -38 -4z"/>
<path d="M3618 3723 c12 -2 32 -2 45 0 12 2 2 4 -23 4 -25 0 -35 -2 -22 -4z"/>
<path d="M3563 3693 c26 -2 68 -2 95 0 26 2 4 3 -48 3 -52 0 -74 -1 -47 -3z"/>
<path d="M3493 3663 c9 -2 23 -2 30 0 6 3 -1 5 -18 5 -16 0 -22 -2 -12 -5z"/>
<path d="M3558 3663 c6 -2 18 -2 25 0 6 3 1 5 -13 5 -14 0 -19 -2 -12 -5z"/>
<path d="M1370 3636 c0 -2 8 -10 18 -17 15 -13 16 -12 3 4 -13 16 -21 21 -21
13z"/>
<path d="M1496 3508 c3 -7 20 -24 37 -37 l32 -25 -34 37 c-38 40 -43 44 -35
25z"/>
<path d="M1955 3440 c-145 -5 -158 -6 -135 -19 20 -12 67 -14 230 -12 113 1
206 7 208 12 8 20 39 -11 37 -36 -2 -15 4 -30 14 -38 9 -6 27 -27 40 -45 12
-18 27 -29 33 -26 6 4 8 2 5 -3 -7 -11 20 -28 37 -24 5 1 4 -4 -3 -13 -14 -17
-1 -29 18 -17 10 6 -3 29 -50 87 -35 43 -78 93 -96 111 -37 36 4 34 -338 23z"/>
<path d="M3215 3436 c17 -14 44 -15 199 -11 99 3 182 8 185 10 2 3 -72 5 -166
5 -94 0 -186 3 -204 6 -33 6 -33 6 -14 -10z"/>
<path d="M3177 3043 c-4 -219 -3 -403 2 -423 6 -22 9 119 10 388 1 232 -1 422
-2 422 -2 0 -7 -174 -10 -387z"/>
<path d="M3200 3011 c0 -406 1 -421 19 -421 10 0 22 7 25 15 3 9 6 184 7 391
l0 374 -25 31 -26 31 0 -421z"/>
<path d="M3615 3420 c-33 -53 -40 -185 -40 -742 0 -289 -4 -480 -9 -470 -5 9
-18 28 -30 42 l-21 25 23 -20 23 -19 -2 367 c0 202 -5 367 -9 367 -10 0 -8 20
4 39 7 11 6 12 -5 6 -11 -7 -11 -5 1 10 9 11 10 16 3 11 -7 -4 -13 -3 -13 3 0
5 5 13 11 17 8 4 8 9 0 17 -6 6 -11 19 -11 30 0 29 -59 106 -79 102 -19 -4
-25 22 -9 42 5 7 5 14 -2 18 -6 4 -10 3 -9 -2 4 -22 -2 -25 -16 -7 -11 13 -14
14 -13 4 2 -8 8 -19 13 -23 6 -5 3 -7 -7 -4 -22 8 -30 -3 -16 -22 8 -10 4 -9
-10 3 -23 20 -30 32 -10 20 7 -5 8 -3 3 6 -6 9 -4 11 5 5 9 -5 11 -4 6 4 -6 8
-12 9 -20 2 -7 -6 -16 -7 -21 -3 -4 4 -5 -2 -1 -14 4 -14 1 -26 -9 -34 -9 -7
-15 -9 -14 -4 3 19 -1 37 -8 30 -10 -9 -11 -46 -2 -40 4 2 13 -5 19 -16 6 -11
16 -17 22 -14 7 4 8 2 4 -5 -6 -8 -12 -9 -20 -2 -7 6 -17 7 -21 3 -5 -4 -5 -1
0 7 6 10 4 12 -4 7 -9 -6 -9 -11 1 -24 10 -12 10 -14 1 -8 -20 11 -15 -6 13
-49 l26 -40 -31 35 -30 35 -1 -27 c0 -15 4 -29 9 -33 14 -8 9 -44 -5 -38 -27
10 -34 -38 -34 -236 l0 -199 27 -34 27 -33 -35 33 c-24 22 -45 32 -67 32 -18
0 -32 -4 -32 -9 0 -5 28 -41 63 -79 114 -127 302 -343 330 -380 16 -20 32 -38
37 -40 6 -2 10 273 10 677 0 375 -2 681 -4 681 -3 0 -8 -5 -11 -10z m-270
-930 c10 -11 16 -20 13 -20 -3 0 -13 9 -23 20 -10 11 -16 20 -13 20 3 0 13 -9
23 -20z m56 -67 c13 -16 12 -17 -3 -4 -17 13 -22 21 -14 21 2 0 10 -8 17 -17z
m84 -103 c10 -11 16 -20 13 -20 -3 0 -13 9 -23 20 -10 11 -16 20 -13 20 3 0
13 -9 23 -20z"/>
<path d="M1790 3304 c0 -102 2 -115 16 -110 9 3 20 6 25 6 5 0 9 42 9 94 0 89
-1 95 -25 110 l-25 16 0 -116z"/>
<path d="M1857 3383 c-9 -9 -8 -108 2 -159 7 -35 5 -41 -8 -37 -9 2 -26 0 -39
-4 -21 -8 -18 -13 60 -104 70 -80 174 -197 372 -419 207 -231 379 -428 561
-640 120 -140 228 -259 239 -263 22 -8 651 -17 674 -9 8 3 -3 21 -30 52 -24
26 -65 75 -93 110 -27 34 -54 68 -60 74 -12 12 -229 262 -400 461 -235 274
-318 364 -328 358 -6 -3 -7 -1 -3 5 3 6 -2 15 -11 21 -10 6 -14 11 -10 11 12
0 -173 210 -185 210 -5 0 -6 -5 -2 -12 4 -7 3 -8 -5 -4 -9 6 -9 11 -1 21 8 10
6 17 -7 27 -10 7 -26 24 -35 38 -10 14 -33 43 -52 65 -26 30 -38 37 -47 28 -8
-8 -6 -13 10 -18 12 -3 21 -9 22 -13 5 -44 27 -77 61 -88 10 -3 17 -12 16 -19
-2 -8 16 -34 40 -58 23 -25 42 -49 42 -55 0 -5 19 -26 41 -46 23 -20 38 -36
34 -36 -5 0 24 -32 63 -70 40 -39 72 -75 72 -80 0 -5 28 -42 63 -81 34 -39 91
-106 127 -149 155 -186 190 -227 270 -318 47 -53 99 -115 115 -137 16 -22 64
-78 105 -125 86 -96 105 -120 97 -120 -6 0 -312 344 -380 428 -22 26 -76 87
-120 136 -45 49 -89 99 -97 112 -20 29 -202 241 -309 357 -46 51 -95 108 -109
127 -15 19 -44 55 -67 80 -22 26 -98 114 -169 198 l-128 152 -192 0 c-106 0
-196 -3 -199 -7z m49 -245 l29 -33 -32 29 c-18 17 -33 31 -33 33 0 8 8 1 36
-29z m54 -63 c13 -14 21 -25 18 -25 -2 0 -15 11 -28 25 -13 14 -21 25 -18 25
2 0 15 -11 28 -25z m624 -3 c3 -5 -1 -9 -9 -9 -8 0 -12 4 -9 9 3 4 7 8 9 8 2
0 6 -4 9 -8z m-544 -87 c30 -30 52 -55 49 -55 -2 0 -29 25 -59 55 -30 30 -52
55 -49 55 2 0 29 -25 59 -55z m105 -115 c21 -22 37 -40 34 -40 -3 0 -23 18
-44 40 -21 22 -37 40 -34 40 3 0 23 -18 44 -40z m131 -147 c44 -48 74 -84 68
-80 -15 9 -158 167 -151 167 2 0 40 -39 83 -87z m139 -153 c10 -11 16 -20 13
-20 -3 0 -13 9 -23 20 -10 11 -16 20 -13 20 3 0 13 -9 23 -20z m60 -70 c21
-22 37 -40 34 -40 -3 0 -23 18 -44 40 -21 22 -37 40 -34 40 3 0 23 -18 44 -40z
m90 -100 c21 -22 37 -40 34 -40 -3 0 -23 18 -44 40 -21 22 -37 40 -34 40 3 0
23 -18 44 -40z m111 -132 l29 -33 -32 29 c-31 28 -38 36 -30 36 2 0 16 -15 33
-32z m114 -125 c0 -8 -9 0 -50 45 l-45 47 48 -45 c26 -24 47 -45 47 -47z m31
-40 c13 -16 12 -17 -3 -4 -17 13 -22 21 -14 21 2 0 10 -8 17 -17z m39 -48 c13
-14 21 -25 18 -25 -2 0 -15 11 -28 25 -13 14 -21 25 -18 25 2 0 15 -11 28 -25z
m51 -62 c13 -16 12 -17 -3 -4 -17 13 -22 21 -14 21 2 0 10 -8 17 -17z m49 -48
c13 -14 21 -25 18 -25 -2 0 -15 11 -28 25 -13 14 -21 25 -18 25 2 0 15 -11 28
-25z m109 -144 c-2 -6 -10 2 -17 17 -11 25 -11 25 4 10 9 -9 15 -21 13 -27z"/>
<path d="M3385 3290 c-4 -6 -10 -8 -14 -6 -4 3 -8 -1 -8 -9 0 -13 3 -13 17 0
9 8 20 12 25 8 4 -5 5 -2 1 5 -9 15 -13 15 -21 2z"/>
<path d="M3460 3276 c0 -2 8 -10 18 -17 15 -13 16 -12 3 4 -13 16 -21 21 -21
13z"/>
<path d="M3463 3225 c0 -8 4 -12 8 -10 4 3 19 -11 34 -31 15 -19 29 -33 32
-30 2 2 -5 14 -17 26 -16 16 -19 25 -11 30 9 5 8 10 -4 20 -13 11 -14 10 -9
-6 7 -18 7 -18 -13 -1 -16 14 -20 14 -20 2z"/>
<path d="M1791 2343 l0 -593 214 0 215 0 0 354 c0 195 -3 357 -7 359 -5 3 -18
1 -30 -4 l-23 -8 -2 -323 -2 -323 -6 326 -5 327 -80 88 c-45 49 -103 115 -129
146 -51 60 -67 65 -65 20 0 -15 0 -220 0 -456 -1 -235 1 -431 4 -435 2 -4 -10
-16 -28 -26 -28 -16 -30 -17 -18 -2 11 15 14 105 12 529 l-1 512 -24 50 -24
51 -1 -592z"/>
<path d="M1837 2872 c14 -29 36 -58 47 -64 24 -12 76 -65 70 -71 -2 -2 30 -36
71 -75 42 -40 74 -72 71 -72 -6 0 31 -37 65 -65 30 -25 -6 17 -106 125 -38 41
-95 104 -126 140 -31 36 -70 81 -88 100 l-31 35 27 -53z"/>
<path d="M2522 1583 c-798 -3 -802 -3 -790 -23 13 -20 25 -20 1043 -20 1007 0
1031 1 1055 20 39 30 48 23 12 -9 l-32 -30 -2 -258 -3 -258 -2 238 c-3 179 -6
237 -16 237 -8 0 -7 4 3 10 13 9 13 10 0 10 -13 0 -13 1 0 10 10 6 -347 10
-1017 10 l-1031 0 -255 -260 c-140 -143 -257 -260 -259 -260 -3 0 13 19 36 43
22 23 124 128 226 233 282 291 254 257 233 283 l-19 23 -54 -63 c-30 -35 -91
-100 -135 -144 -181 -183 -390 -408 -390 -419 0 -8 356 -12 1360 -14 748 -1
1370 0 1383 3 l22 5 0 314 c0 277 -2 315 -16 320 -9 3 -136 5 -282 4 -147 -2
-628 -4 -1070 -5z"/>
</g>
</svg>
